<svg width="24" height="24" viewBox="0 0 48 48" xmlns="http://www.w3.org/2000/svg">
    <path fill="#EA4335" d="M24 9.5c3.5 0 6.6 1.2 9.1 3.4l6.8-6.8C35.6 2.3 30.1 0 24 0 14.6 0 6.4 5.4 2.5 13.2l7.9 6.1C12.4 13.1 17.7 9.5 24 9.5z"/>
    <path fill="#4285F4" d="M46.1 24.5c0-1.6-.1-2.7-.4-3.9H24v7.4h12.8c-.3 2-1.8 5-5.1 7l7.8 6C43.9 36.9 46.1 31.3 46.1 24.5z"/>
    <path fill="#FBBC05" d="M10.4 28.3c-.5-1.5-.8-3.1-.8-4.8s.3-3.3.8-4.8l-7.9-6.1C.9 15.6 0 19.6 0 23.5s.9 7.9 2.5 11l7.9-6.2z"/>
    <path fill="#34A853" d="M24 48c6.1 0 11.3-2 15.1-5.5l-7.8-6c-2.2 1.5-5 2.4-7.3 2.4-6.3 0-11.6-3.6-13.6-8.8l-7.9 6.1C6.4 42.6 14.6 48 24 48z"/>
</svg>
